<?xml version="1.0" standalone="no"?><svg xmlns="http://www.w3.org/2000/svg" viewBox="0 0 1440 320"><path fill="#005ebe" fill-opacity="1" d="M0,0L21.8,48C43.6,96,87,192,131,208C174.5,224,218,160,262,138.7C305.5,117,349,139,393,165.3C436.4,192,480,224,524,240C567.3,256,611,256,655,229.3C698.2,203,742,149,785,112C829.1,75,873,53,916,69.3C960,85,1004,139,1047,160C1090.9,181,1135,171,1178,181.3C1221.8,192,1265,224,1309,245.3C1352.7,267,1396,277,1418,282.7L1440,288L1440,320L1418.2,320C1396.4,320,1353,320,1309,320C1265.5,320,1222,320,1178,320C1134.5,320,1091,320,1047,320C1003.6,320,960,320,916,320C872.7,320,829,320,785,320C741.8,320,698,320,655,320C610.9,320,567,320,524,320C480,320,436,320,393,320C349.1,320,305,320,262,320C218.2,320,175,320,131,320C87.3,320,44,320,22,320L0,320Z"></path></svg>